<?xml version="1.0" encoding="iso-8859-1"?>
<!-- Generator: Adobe Illustrator 17.1.0, SVG Export Plug-In . SVG Version: 6.00 Build 0)  -->
<!DOCTYPE svg PUBLIC "-//W3C//DTD SVG 1.1//EN" "http://www.w3.org/Graphics/SVG/1.1/DTD/svg11.dtd">
<svg xmlns="http://www.w3.org/2000/svg" xmlns:xlink="http://www.w3.org/1999/xlink" version="1.1" id="Capa_1" x="0px" y="0px" viewBox="0 0 512 512" style="enable-background:new 0 0 512 512;" xml:space="preserve" width="512px" height="512px">
<g>
	<path d="M320,64c-89.301,0-164.557,61.282-185.925,144H64v-26c0-7.72-6.28-14-14-14H8c-4.418,0-8,3.582-8,8v160   c0,4.418,3.582,8,8,8h42c7.72,0,14-6.28,14-14v-26h70.075C155.443,386.718,230.699,448,320,448c105.869,0,192-86.131,192-192   S425.869,64,320,64z M48,328H16V184h32V328z M64,288v-64h66.681c-1.754,10.411-2.681,21.098-2.681,32s0.927,21.589,2.681,32H64z    M320,432c-97.047,0-176-78.953-176-176S222.953,80,320,80s176,78.953,176,176S417.047,432,320,432z" fill="#32c73c"/>
	<path d="M176,256c0-79.402,64.598-144,144-144c26.866,0,53.071,7.445,75.782,21.529c3.756,2.328,8.687,1.172,11.015-2.583   c2.329-3.755,1.172-8.687-2.583-11.015C378.969,104.275,349.849,96,320,96c-88.224,0-160,71.776-160,160   c0,36.74,12.764,72.627,35.942,101.05c1.581,1.939,3.883,2.945,6.205,2.945c1.777,0,3.566-0.59,5.051-1.801   c3.424-2.792,3.937-7.832,1.144-11.255C187.486,321.363,176,289.067,176,256z" fill="#ffffff"/>
	<path d="M456.073,171.793c-2.328-3.755-7.26-4.912-11.015-2.583c-3.755,2.328-4.912,7.26-2.583,11.015   C456.557,202.934,464,229.137,464,256c0,79.402-64.598,144-144,144c-33.074,0-65.375-11.49-90.953-32.354   c-3.424-2.793-8.464-2.281-11.256,1.143c-2.792,3.424-2.281,8.463,1.143,11.256C247.359,403.231,283.252,416,320,416   c88.224,0,160-71.776,160-160C480,226.155,471.726,197.036,456.073,171.793z" fill="#ffffff"/>
	<path d="M426.109,158.649c1.578,1.719,3.733,2.59,5.895,2.59c1.933,0,3.872-0.697,5.408-2.107   c3.255-2.988,3.471-8.049,0.483-11.303c-3.087-3.363-6.356-6.632-9.715-9.716c-3.254-2.988-8.315-2.773-11.303,0.483   c-2.988,3.254-2.772,8.315,0.483,11.303C420.384,152.676,423.328,155.62,426.109,158.649z" fill="#ffffff"/>
	<path d="M296,216v-56c0-4.418-3.582-8-8-8s-8,3.582-8,8v56c0,4.418,3.582,8,8,8S296,220.418,296,216z" fill="#ffffff"/>
	<path d="M288,360c4.418,0,8-3.582,8-8V246.987c13.786-3.561,24-16.104,24-30.987v-56c0-4.418-3.582-8-8-8s-8,3.582-8,8v56   c0,8.822-7.178,16-16,16s-16-7.178-16-16v-56c0-4.418-3.582-8-8-8s-8,3.582-8,8v56c0,14.884,10.214,27.426,24,30.987V352   C280,356.418,283.582,360,288,360z" fill="#ffffff"/>
	<path d="M336,160v192c0,4.418,3.582,8,8,8s8-3.582,8-8v-72h24c4.418,0,8-3.582,8-8v-80c0-22.056-17.944-40-40-40   C339.582,152,336,155.582,336,160z M368,192v72h-16v-94.624C361.311,172.679,368,181.571,368,192z" fill="#ffffff"/>
</g>
<g>
</g>
<g>
</g>
<g>
</g>
<g>
</g>
<g>
</g>
<g>
</g>
<g>
</g>
<g>
</g>
<g>
</g>
<g>
</g>
<g>
</g>
<g>
</g>
<g>
</g>
<g>
</g>
<g>
</g>
</svg>
