<?xml version="1.0" encoding="UTF-8" standalone="no"?>
<svg width="71px" height="71px" viewBox="0 0 71 71" version="1.1" xmlns="http://www.w3.org/2000/svg" xmlns:xlink="http://www.w3.org/1999/xlink">
    <!-- Generator: Sketch 3.6.1 (26313) - http://www.bohemiancoding.com/sketch -->
    <title>Artboard 57 Copy</title>
    <desc>Created with Sketch.</desc>
    <defs></defs>
    <g id="Welcome" stroke="none" stroke-width="1" fill="none" fill-rule="evenodd">
        <g id="Artboard-57-Copy" stroke="#4DB1E2" stroke-width="4">
            <g id="Group-5-Copy" transform="translate(4.000000, 4.000000)">
                <path d="M4.32504042,44.5362967 C3.46452504,41.8450499 3,38.9767728 3,36 C3,22.8835838 12.0187871,11.8736181 24.1933736,8.8330907 C24.9633223,12.1565696 27.9423906,14.6335984 31.5,14.6335984 C34.9672789,14.6335984 37.8850229,12.2807602 38.7437317,9.08458427 C50.4411619,12.4438685 59,23.2224224 59,36 C59,38.904265 58.557829,41.7052555 57.7371347,44.3393237 C57.0305949,44.1188181 56.2791732,44 55.5,44 C51.3578644,44 48,47.3578644 48,51.5 C48,53.4606488 48.75234,55.2455792 49.9840804,56.5818517 C44.9940364,61.1868193 38.325545,64 31,64 C23.8830918,64 17.3863434,61.3447802 12.4463405,56.9709262 C14.0118265,55.5963553 15,53.5801232 15,51.3330907 C15,47.1909551 11.6421356,43.8330907 7.5,43.8330907 C6.36517063,43.8330907 5.28920919,44.0851343 4.32504042,44.5362967 Z" id="Combined-Shape"></path>
                <circle id="Oval-1156-Copy" cx="31.5" cy="7.5" r="7.5"></circle>
                <circle id="Oval-1156-Copy-2" cx="55.5" cy="51.5" r="7.5"></circle>
                <circle id="Oval-1156-Copy-3" cx="7.5" cy="51.5" r="7.5"></circle>
            </g>
        </g>
    </g>
</svg>