<?xml version="1.0" encoding="UTF-8" standalone="no"?>
<svg width="73px" height="73px" viewBox="0 0 73 73" version="1.1" xmlns="http://www.w3.org/2000/svg" xmlns:xlink="http://www.w3.org/1999/xlink">
    <!-- Generator: Sketch 3.6.1 (26313) - http://www.bohemiancoding.com/sketch -->
    <title>Artboard 57 Copy 2@3x</title>
    <desc>Created with Sketch.</desc>
    <defs></defs>
    <g id="Welcome" stroke="none" stroke-width="1" fill="none" fill-rule="evenodd">
        <g id="Artboard-57-Copy-2" stroke="#4DB1E2">
            <g id="Group-6-Copy" transform="translate(2.000000, 4.000000)">
                <path d="M49,56 L64.9920254,56 C67.2074985,56 69,54.2047097 69,51.9901068 L69,12.0098932 C69,9.79405245 67.2055686,8 64.9920254,8 L4.00797464,8 C1.79250151,8 0,9.79529033 0,12.0098932 L0,51.9901068 C0,54.2059475 1.79443137,56 4.00797464,56 L20,56 L20,41 L49,41 L49,56 Z" id="Combined-Shape" stroke-width="4"></path>
                <path d="M17.8684516,9.82038119 L17.8684516,1.27731964 C17.8684516,0.723036569 18.3112814,0.273701357 18.8589517,0.273701357 L49.9740359,0.273701357 C50.5210739,0.273701357 50.9645359,0.724497931 50.9645359,1.27393049 L50.9645359,9.62010706" id="Path-970" stroke-width="4"></path>
                <rect id="Rectangle-1540" fill="#4DB1E2" x="10" y="37" width="49" height="4" rx="4"></rect>
                <rect id="Rectangle-1540-Copy" fill="#4DB1E2" x="45" y="21" width="10" height="4" rx="4"></rect>
                <rect id="Rectangle-1542" stroke-width="4" x="16" y="37" width="37" height="29" rx="4"></rect>
            </g>
        </g>
    </g>
</svg>